<?xml version="1.0" encoding="UTF-8"?> <svg xmlns="http://www.w3.org/2000/svg" xmlns:xlink="http://www.w3.org/1999/xlink" version="1.1" id="Laag_1" x="0px" y="0px" viewBox="0 0 333.2 73" style="enable-background:new 0 0 333.2 73;" xml:space="preserve"> <style type="text/css"> .st0{fill:#F08100;} .st1{fill:#FFFFFF;} </style> <g> <g> <g> <g> <g> <path class="st0" d="M16,10.7c0,0.7-0.7,1.3-1.4,1.3H4.3C3.6,12,3,11.4,3,10.7l0.5-8.4C3.5,1.6,4.2,1,4.9,1h10.3 c0.7,0,1.3,0.6,1.3,1.3L16,10.7z"></path> </g> <g> <path class="st1" d="M13.7,52.6c0,0.7-0.7,1.3-1.4,1.3H2c-0.7,0-1.3-0.6-1.3-1.3l1.9-35.1c0-0.7,0.7-1.3,1.4-1.3h10.3 c0.7,0,1.3,0.6,1.3,1.3L13.7,52.6z"></path> </g> <g> <path class="st1" d="M41.7,0.9H24.5c-0.7,0-1.4,0.6-1.4,1.3l-2.8,50.3c0,0.7,0.5,1.3,1.3,1.3h10.3c0.7,0,1.4-0.6,1.4-1.3 l2.4-43.4h5.6c5.9,0,8.2,4,7.8,10.1c-0.2,4.4-3.1,10.2-6.9,10.2h-1.6c-0.7,0-1.4,0.6-1.4,1.3l-0.3,5.5c0,0.7,0.5,1.3,1.3,1.3 h1.6c14,0,19.6-9.5,20.1-18.4C62.3,9,57.2,0.9,41.7,0.9"></path> </g> <g> <path class="st1" d="M84.9,8.8c-4.1,0-7.6,1.3-7.6,5c0,6.4,19.7,11.9,19.6,25.1c-0.1,11.6-9.2,15.9-20.7,15.9 c-7.7,0-13.3-2.5-14.1-2.8c-0.8-0.4-1.3-0.8-1.2-1.9l0.4-7.8c0-0.7,0.7-1.4,1.4-1c1.5,0.9,7.4,4.2,12.8,4.2 c6.8,0,8.7-3.2,8.7-5.8c0.1-6-20-14.3-19.8-26.1C64.6,3.3,74,0,84.5,0c6.4,0,11.4,2,12.2,2.4C97.2,2.6,98,3,97.9,3.7l-0.5,8.1 c0,0.7-0.7,1.4-1.4,1C94.6,12,90.2,8.8,84.9,8.8"></path> </g> <g> <path class="st1" d="M1.5,65.8c0.2-0.7,1.4-3.7,3.3-3.7c1.2,0,1.6,1.2,1.6,2.5c0,2.9-1.7,5.3-3.8,5.3c-0.8,0-1.2-0.3-1.4-0.3 L1,72.7C1,72.9,0.9,73,0.7,73H0.3C0,72.9,0,72.8,0,72.6l0.6-10.1c0-0.2,0.1-0.3,0.3-0.3h0.6c0.2,0,0.3,0.1,0.3,0.3L1.5,65.8z M2.6,69.1c1.6,0,2.7-1.9,2.7-4.4c0-0.8-0.1-1.6-0.7-1.6c-1.3,0-3.2,3.9-3.2,5.8C1.5,68.9,1.9,69.1,2.6,69.1"></path> </g> <g> <path class="st1" d="M58.4,65.8c0.2-0.7,1.4-3.7,3.3-3.7c1.2,0,1.6,1.2,1.6,2.5c0,2.9-1.7,5.3-3.8,5.3c-0.8,0-1.2-0.3-1.4-0.3 l-0.2,3.1c0,0.2-0.1,0.3-0.3,0.3H57c-0.2,0-0.3-0.1-0.3-0.3l0.6-10.1c0-0.2,0.1-0.3,0.3-0.3h0.6c0.2,0,0.3,0.1,0.3,0.3 L58.4,65.8z M59.5,69.1c1.6,0,2.7-1.9,2.7-4.4c0-0.8-0.1-1.6-0.7-1.6c-1.3,0-3.2,3.9-3.2,5.8C58.4,68.9,58.8,69.1,59.5,69.1"></path> </g> <g> <path class="st1" d="M80.1,65.8c0.2-0.7,1.4-3.7,3.3-3.7c1.2,0,1.6,1.2,1.6,2.5c0,2.9-1.6,5.3-3.8,5.3c-0.8,0-1.2-0.3-1.4-0.3 l-0.2,3.1c0,0.2-0.1,0.3-0.3,0.3h-0.6c-0.2,0-0.3-0.1-0.3-0.3L79,62.6c0-0.2,0.1-0.3,0.3-0.3h0.6c0.2,0,0.3,0.1,0.3,0.3 L80.1,65.8z M81.2,69.1c1.6,0,2.7-1.9,2.7-4.4c0-0.8-0.1-1.6-0.7-1.6c-1.3,0-3.2,3.9-3.2,5.8C80.1,68.9,80.5,69.1,81.2,69.1"></path> </g> <g> <path class="st1" d="M7.7,66.6c0-2.7,1.4-4.5,3.3-4.5s2.7,1.4,2.7,3.4c0,2.8-1.5,4.4-3.3,4.4C8.7,69.9,7.7,68.4,7.7,66.6 M10.6,69c1.2,0,2-1.3,2-3.4c0-1.4-0.4-2.6-1.6-2.6s-2,1.3-2,3.5C9,67.8,9.3,69,10.6,69"></path> </g> <g> <path class="st1" d="M21.4,68.8l2-6.3c0-0.1,0.2-0.2,0.3-0.2h0.6c0.1,0,0.2,0,0.2,0.2L22,69.6c0,0.1-0.2,0.2-0.3,0.2h-0.8 c-0.1,0-0.3-0.1-0.3-0.2l-1.1-6.3l-2.1,6.3c0,0.1-0.2,0.3-0.4,0.3h-0.6c-0.2,0-0.4-0.1-0.4-0.3l-1.4-7.1c0-0.1,0-0.2,0.2-0.2 h0.8c0.1,0,0.2,0.1,0.2,0.2l1,6.3l2.2-6.3c0.1-0.1,0.2-0.2,0.4-0.2H20c0.1,0,0.3,0.1,0.3,0.2L21.4,68.8z"></path> </g> <g> <path class="st1" d="M45.7,66.1c-0.2,0.7-1.3,3.8-3.5,3.8c-0.8,0-1.2-0.7-1.2-1.4l0.4-6c0-0.2,0.1-0.3,0.3-0.3h0.6 c0.3,0,0.3,0.1,0.3,0.3l-0.3,5.2c0,0.6,0,1,0.4,1c1.1,0,3-3.7,3.1-5.5v-0.8c0-0.2,0.1-0.3,0.3-0.3h0.6c0.2,0,0.2,0.1,0.2,0.3 l-0.4,7c0,0.2-0.1,0.3-0.3,0.3h-0.6c-0.3,0-0.3-0.1-0.3-0.3L45.7,66.1z"></path> </g> <g> <path class="st1" d="M49.7,59.5c0-0.2,0.1-0.2,0.3-0.2h0.6c0.2,0,0.3,0.1,0.3,0.2l-0.6,10c0,0.2-0.1,0.3-0.3,0.3h-0.6 c-0.2,0-0.3-0.1-0.3-0.3L49.7,59.5z"></path> </g> <g> <path class="st1" d="M71.1,66.6c0-2.7,1.4-4.5,3.3-4.5s2.7,1.4,2.7,3.4c0,2.8-1.5,4.4-3.3,4.4C72.1,69.9,71.1,68.4,71.1,66.6 M74,69c1.2,0,2-1.3,2-3.4c0-1.4-0.4-2.6-1.6-2.6s-2,1.3-2,3.5C72.3,67.8,72.7,69,74,69"></path> </g> <g> <path class="st1" d="M87.3,59.5c0-0.2,0.1-0.2,0.3-0.2h0.6c0.2,0,0.3,0.1,0.3,0.2l-0.6,10c0,0.2-0.1,0.3-0.3,0.3H87 c-0.2,0-0.3-0.1-0.3-0.3L87.3,59.5z"></path> </g> <g> <path class="st1" d="M35.6,62.2c-1.9,0-2.4,2.4-2.6,3.2l0.2-2.9c0-0.2,0-0.3-0.3-0.3h-0.6c-0.2,0-0.3,0.1-0.3,0.3l-0.4,7 c0,0.2,0,0.3,0.3,0.3h0.6c0.2,0,0.3-0.1,0.3-0.3v-0.8c0-0.8,0.9-5,2.5-5.5c0.5-0.1,0.9-0.1,1.3-0.1h0.8L37,72.6 c0,0.2,0,0.3,0.3,0.3h0.6c0.2,0,0.3-0.1,0.3-0.3l0.5-9.5h1.7c0.2,0,0.3-0.1,0.3-0.3v-0.3c0-0.2,0-0.3-0.2-0.3h-1.7l0.1-1 c0-0.8,0.6-1.3,1.2-1.3c0.8,0,1,0.2,1.2,0.2c0.1,0,0.1-0.1,0.1-0.2v-0.5c0-0.3-0.8-0.4-1.3-0.4c-1.3,0-2.3,0.7-2.4,2.3v0.9 H35.6z"></path> </g> <g> <path class="st1" d="M91.2,66.6c0,1.6,0.6,2.4,1.8,2.4c1.2,0,1.8-0.5,1.9-0.5s0.1,0.1,0.1,0.2v0.5c0,0.1,0,0.2-0.1,0.2 c-0.4,0.2-1.2,0.5-2.2,0.5c-1.6,0-2.8-0.9-2.8-3.2c0-3,1.8-4.6,3.7-4.6c1.4,0,1.9,0.7,1.9,1.4c0,2.4-3.5,2.5-4.4,2.6L91.2,66.6 z M91.3,65.3c0.5,0,3-0.1,3-1.6c0-0.5-0.3-0.8-0.8-0.8C92,62.9,91.4,64.8,91.3,65.3"></path> </g> <g> <path class="st1" d="M65.9,66.6c0,1.6,0.6,2.4,1.8,2.4c1.2,0,1.8-0.5,1.9-0.5s0.1,0.1,0.1,0.2v0.5c0,0.1,0,0.2-0.1,0.2 c-0.4,0.2-1.2,0.5-2.2,0.5c-1.6,0-2.8-0.9-2.8-3.2c0-3,1.8-4.6,3.7-4.6c1.4,0,1.9,0.7,1.9,1.4c0,2.4-3.5,2.5-4.4,2.6L65.9,66.6 z M66,65.3c0.5,0,3-0.1,3-1.6c0-0.5-0.3-0.8-0.8-0.8C66.6,62.9,66,64.8,66,65.3"></path> </g> <g> <path class="st1" d="M26,66.6c0,1.6,0.6,2.4,1.8,2.4c1.2,0,1.8-0.5,1.9-0.5s0.1,0.1,0.1,0.2v0.5c0,0.1,0,0.2-0.1,0.2 c-0.4,0.2-1.2,0.5-2.2,0.5c-1.6,0-2.8-0.9-2.8-3.2c0-3,1.8-4.6,3.7-4.6c1.4,0,1.9,0.7,1.9,1.4c0,2.4-3.6,2.5-4.4,2.6L26,66.6z M26.1,65.3c0.5,0,3-0.1,3-1.6c0-0.5-0.3-0.8-0.8-0.8C26.7,62.9,26.2,64.8,26.1,65.3"></path> </g> </g> <g> <polygon class="st1" points="110.8,54.8 109,54.8 111.9,0 113.8,0 "></polygon> </g> </g> </g> <g> <path class="st1" d="M127,25.9h1c0.9,0,1.6-0.7,1.7-2.1c0-1-0.5-1.8-1.4-1.8c-0.8,0-1.4,0.7-1.5,1.7H124c0.2-2.6,2.2-4.5,4.7-4.5 c2.6,0,4.5,2.1,4.4,4.5c-0.1,1.8-1.3,3-2.1,3.6c1.1,0.7,2,2,1.8,3.9c-0.1,2.6-1.7,4.7-4.8,4.7c-3.1,0-4.6-2-4.6-4.5h2.9 c0.1,1,0.6,1.7,1.6,1.7s1.6-0.9,1.6-2.1c0.1-1.4-0.5-2.3-1.7-2.3h-1L127,25.9z"></path> <path class="st1" d="M139.9,28.6h-3l0.5-9h8.3l-0.1,3h-4.9l-0.1,2.6c0.5-0.5,1-0.8,2-0.8c2,0,3.6,1.8,3.3,5.7 c-0.2,3.8-1.8,5.7-4.8,5.7c-2.4,0-4.5-1.5-4.5-4.4h3.3c0.1,1,0.5,1.6,1.3,1.6c0.8,0,1.3-0.9,1.4-2.8c0.1-2-0.2-3-1-3 C140.5,27.3,140.2,27.7,139.9,28.6z"></path> <path class="st1" d="M157.9,24l1.4,7.4l2.1-7.4h3.1l-4.1,12.4c-1,3-2.1,3.8-4.9,3.8l0.1-2.6c1.4,0,1.8-0.3,2.1-1.7l-2.9-11.7h3.2 V24z"></path> <path class="st1" d="M173.7,33.8c-0.8,1.4-1.8,2.1-3.9,2.1c-3.1,0-4.5-2.3-4.3-5.3l0.1-1.6c0.2-3.6,2-5.3,4.5-5.3 c2.9,0,4.1,2,4,5.5l-0.1,1.4h-5.5c0,1.6,0.1,2.8,1.4,2.8c0.9,0,1.3-0.3,1.6-1L173.7,33.8z M168.7,28.4h2.4c0-1.5-0.3-2.2-1-2.2 C169.2,26.3,168.9,27.1,168.7,28.4z"></path> <path class="st1" d="M180.5,28.6h1.8v-0.7c0.1-1.3-0.1-1.7-1.5-1.7c-0.9,0-1.4,0.2-1.7,0.9l-2.1-1.5c0.8-1.4,2.2-2,4.3-2 c2.5,0,4.3,0.9,4,4.3l-0.5,7.7h-3v-1c-0.5,0.8-1,1.3-2.2,1.3c-2,0-3.4-1.3-3.2-3.7C176.6,29.7,178.3,28.6,180.5,28.6z M182.2,30.8 h-1.4c-0.8,0-1.3,0.3-1.3,1.3c0,0.9,0.3,1.3,1.1,1.3c1,0,1.5-0.6,1.5-2.2V30.8z"></path> <path class="st1" d="M194.2,27.2c-0.2-0.5-0.5-0.9-1.1-0.9c-0.8,0-1.4,0.8-1.4,2.4l-0.3,6.9h-3.1l0.6-11.7h3v0.9 c0.3-0.6,1-1.1,2.2-1.1c1.1,0,2.1,0.6,2.6,1.8L194.2,27.2z"></path> <path class="st1" d="M204,27.2c-0.3-0.6-0.8-0.9-1.7-0.9c-0.6,0-1,0.2-1,0.9c0,0.7,0.3,0.9,1.5,1.1c2.3,0.5,3.4,1.5,3.3,3.8 c-0.1,2.3-1.7,3.7-4.3,3.7c-2.1,0-3.4-0.6-4.3-2l2.3-1.6c0.3,0.7,0.8,1,2,1c0.7,0,1.1-0.3,1.1-0.9c0-0.7-0.2-1-1.5-1.3 c-2-0.5-3.4-1.4-3.3-3.7c0.1-2.2,1.7-3.6,4.3-3.6c1.6,0,3.2,0.5,3.9,2L204,27.2z"></path> <path class="st1" d="M223,30.6c-0.2,3.2-1.6,5.2-4.1,5.2c-2.5,0-3.8-1.8-3.6-5.2l0.1-1.7c0.1-3.2,1.6-5.2,4.1-5.2s3.8,1.8,3.6,5.2 L223,30.6z M221.6,30.6l0.1-1.7c0.1-2.4-0.5-3.9-2.3-3.9c-1.8,0-2.6,1.5-2.8,3.9l-0.1,1.7c-0.1,2.4,0.5,3.9,2.3,3.9 C220.7,34.6,221.5,33.1,221.6,30.6z"></path> <path class="st1" d="M227,24v-0.8c0.1-2.4,0.8-3.6,3-3.6h0.5l-0.1,1.3H230c-1.4,0-1.5,0.9-1.6,2.6V24h1.8l-0.1,1.1h-1.8l-0.6,10.5 h-1.3l0.6-10.5h-1.1L226,24C226,24,227,24,227,24z"></path> <path class="st1" d="M245.5,33.8c-0.7,1.4-1.8,2-3.3,2c-2.5,0-3.9-2-3.7-5.2l0.1-1.7c0.2-3.3,1.5-5.2,3.9-5.2 c2.4,0,3.6,1.8,3.4,5.2l-0.1,1.1h-6.1v0.6c-0.1,2.3,0.6,4,2.4,4c1.1,0,2-0.5,2.4-1.4L245.5,33.8z M239.9,28.9h4.7 c0.1-2.5-0.6-3.9-2.2-3.9C240.8,25,240.1,26.4,239.9,28.9z"></path> <path class="st1" d="M254.2,35.6l-2.4-4.8l-2.9,4.8h-1.5l3.7-6l-2.8-5.7h1.5l2.1,4.6l2.5-4.6h1.5l-3.3,5.7l3.1,6H254.2z"></path> <path class="st1" d="M259.1,24h1.3v1c0.6-0.8,1.4-1.3,2.6-1.3c2.5,0,3.8,1.8,3.6,5.2l-0.1,1.7c-0.1,3.2-1.6,5.2-4.1,5.2 c-1.1,0-2-0.5-2.5-1.4l-0.3,5.6h-1.3L259.1,24z M260.2,28.9l-0.1,2.1c0,2.3,0.6,3.6,2.4,3.6s2.6-1.5,2.8-3.9l0.1-1.7 c0.1-2.4-0.5-3.9-2.3-3.9C261.1,25,260.3,26.5,260.2,28.9z"></path> <path class="st1" d="M276.5,33.8c-0.7,1.4-1.8,2-3.3,2c-2.5,0-3.9-2-3.7-5.2l0.1-1.7c0.2-3.3,1.5-5.2,3.9-5.2 c2.4,0,3.6,1.8,3.4,5.2l-0.1,1.1h-6.1v0.6c-0.1,2.3,0.6,4,2.4,4c1.1,0,2-0.5,2.4-1.4L276.5,33.8z M270.8,28.9h4.7 c0.1-2.5-0.6-3.9-2.2-3.9C271.7,25,271,26.4,270.8,28.9z"></path> <path class="st1" d="M285.7,26.1c-0.5-0.8-0.9-1.1-1.7-1.1c-1.4,0-2.2,1.5-2.3,3.6l-0.3,7h-1.3l0.6-11.7h1.3l-0.1,1.3 c0.5-0.8,1.3-1.4,2.3-1.4c1.3,0,2.1,0.6,2.6,1.6L285.7,26.1z"></path> <path class="st1" d="M289.6,24h1.3l-0.6,11.7H289L289.6,24z M289.7,19.5h1.6l-0.1,1.6h-1.6L289.7,19.5z"></path> <path class="st1" d="M301.3,33.8c-0.7,1.4-1.8,2-3.3,2c-2.5,0-3.9-2-3.7-5.2l0.1-1.7c0.2-3.3,1.5-5.2,3.9-5.2 c2.4,0,3.6,1.8,3.4,5.2l-0.1,1.1h-6.1v0.6c-0.1,2.3,0.6,4,2.4,4c1.1,0,2-0.5,2.4-1.4L301.3,33.8z M295.7,28.9h4.7 c0.1-2.5-0.6-3.9-2.2-3.9C296.6,25,295.9,26.4,295.7,28.9z"></path> <path class="st1" d="M305.6,24h1.3l-0.1,1.3c0.6-0.8,1.4-1.4,2.6-1.4c2.1,0,3.3,1.6,3.2,4.9l-0.3,6.9H311l0.3-6.9 c0.1-2.6-0.8-3.7-2.1-3.7c-1.6,0-2.5,1.5-2.6,3.6l-0.3,7H305L305.6,24z"></path> <path class="st1" d="M323,33.8c-0.7,1.3-1.8,2-3.3,2c-2.5,0-3.9-1.8-3.8-5.2l0.1-1.7c0.2-3.3,1.7-5.2,4.3-5.2 c1.4,0,2.5,0.6,3.1,1.8l-1,0.7c-0.5-0.9-1.3-1.3-2.2-1.3c-1.7,0-2.8,1.4-2.9,3.9l-0.1,1.7c-0.1,2.3,0.5,4,2.5,4 c0.9,0,1.8-0.3,2.3-1.4L323,33.8z"></path> <path class="st1" d="M332.7,33.8c-0.7,1.4-1.8,2-3.3,2c-2.5,0-3.9-2-3.7-5.2l0.1-1.7c0.2-3.3,1.5-5.2,3.9-5.2s3.6,1.8,3.4,5.2 L333,30H327v0.6c-0.1,2.3,0.6,4,2.4,4c1.1,0,2-0.5,2.4-1.4L332.7,33.8z M327,28.9h4.7c0.1-2.5-0.6-3.9-2.2-3.9 C327.9,25,327.2,26.4,327,28.9z"></path> </g> </g> </svg> 